<svg width="180" height="180" viewBox="0 0 180 180" fill="none" xmlns="http://www.w3.org/2000/svg">
<g clip-path="url(#clip0_82_78)">
<path d="M27.2477 -7.62939e-06L152.752 180H27.2477V-7.62939e-06Z" fill="#47AE85"/>
<path d="M139.541 77.6147C139.541 120.48 74.2311 155.229 27.2477 155.229C27.2477 155.229 27.2477 120.48 27.2477 77.6147C27.2477 34.7493 27.2477 -7.62939e-06 27.2477 -7.62939e-06C74.2311 -7.62939e-06 139.541 34.7493 139.541 77.6147Z" fill="#FF7729"/>
<mask id="mask0_82_78" style="mask-type:alpha" maskUnits="userSpaceOnUse" x="27" y="0" width="126" height="180">
<path d="M27.2477 -7.62939e-06L152.752 180H27.2477V-7.62939e-06Z" fill="#FF00FF"/>
</mask>
<g mask="url(#mask0_82_78)">
<path d="M139.541 77.6147C139.541 120.48 74.2311 155.229 27.2477 155.229C27.2477 155.229 27.2477 120.48 27.2477 77.6147C27.2477 34.7493 27.2477 -7.62939e-06 27.2477 -7.62939e-06C74.2311 -7.62939e-06 139.541 34.7493 139.541 77.6147Z" fill="#1F6E81"/>
</g>
</g>
<defs>
<clipPath id="clip0_82_78">
<rect width="180" height="180" fill="white"/>
</clipPath>
</defs>
</svg>
